# xmcd
#
# Track frame offsets:
#	150
#	14867
#	28009
#	45158
#	61958
#	74281
#	93293
#	106457
#	123453
#	137422
#	151804
#	164988
#	180930
#	195679
#	207241
#
# Disc length: 2936 seconds
#
# Revision: 0
# Processed by: cddbd v1.5.2PL0 Copyright (c) Steve Scherf et al.
# Submitted via: EasyCDDAExtractor 15.2.5.1
#
DISCID=cc0b760f
DTITLE=Ricky Skaggs - Heartbroke - CD One
DYEAR=2006
DGENRE=Country
TTITLE0=Heartbroke
TTITLE1=Kentucky Thunder
TTITLE2=Brand New Me
TTITLE3=Sweet Temptation
TTITLE4=My Father's Son
TTITLE5=Two Highways
TTITLE6=I'm Ready To Go
TTITLE7=Give Us A Happy Home
TTITLE8=If That's The Way You Feel
TTITLE9=Don't Stop Gypsy
TTITLE10=I'm Beside Myself
TTITLE11=New Star Shining 
TTITLE12=Hold Watcha Got
TTITLE13=Only Daddy That'll Walk The Line
TTITLE14=Casting My Shadow On The Road
EXTD=
EXTT0=
EXTT1=
EXTT2=
EXTT3=
EXTT4=
EXTT5=
EXTT6=
EXTT7=
EXTT8=
EXTT9=
EXTT10=
EXTT11=
EXTT12=
EXTT13=
EXTT14=
PLAYORDER=
